<svg width="28" height="28" viewBox="0 0 28 28" fill="none" xmlns="http://www.w3.org/2000/svg">
<path d="M14.5 13V3.75378C14.5 3.33978 14.164 3.00378 13.75 3.00378C13.336 3.00378 13 3.33978 13 3.75378V13H3.75391C3.33991 13 3.00391 13.336 3.00391 13.75C3.00391 14.164 3.33991 14.5 3.75391 14.5H13V23.7524C13 24.1664 13.336 24.5024 13.75 24.5024C14.164 24.5024 14.5 24.1664 14.5 23.7524V14.5L23.7499 14.5031C24.1639 14.5031 24.4999 14.1671 24.4999 13.7531C24.4999 13.3391 24.1639 13.0031 23.7499 13.0031L14.5 13Z" fill="#CB3E19"/>
</svg>
