<svg width="24" height="25" viewBox="0 0 24 25" fill="none" xmlns="http://www.w3.org/2000/svg">
<path d="M15.9043 1.36713C15.8433 1.35776 15.7742 1.36362 15.6992 1.38862C14.6992 1.58862 13.6004 2.18862 12.9004 2.88862C12.3004 3.48862 11.8008 4.48862 11.8008 5.38862C11.8008 5.58862 11.9992 5.78901 12.1992 5.78901C13.2992 5.68901 14.3996 5.08862 15.0996 4.38862C15.6996 3.58862 16.1992 2.68901 16.1992 1.78901C16.1992 1.56401 16.0871 1.39526 15.9043 1.36713ZM16.1992 5.6894C14.3992 5.6894 13.6004 6.78901 12.4004 6.78901C11.1004 6.78901 9.90037 5.78901 8.40037 5.78901C6.30037 5.78901 3.09959 7.78862 3.09959 12.3886C2.99959 16.5886 6.79998 21.289 8.99998 21.289C10.3 21.289 10.6004 20.4882 12.4004 20.4882C14.2004 20.4882 14.6004 21.289 15.9004 21.289C17.4004 21.289 18.5004 19.6886 19.4004 18.3886C19.8004 17.6886 20.1004 17.2894 20.4004 16.6894C20.6004 16.2894 20.4 15.8894 20 15.6894C17.4 14.3894 16.9008 10.1894 19.8008 8.6894C20.3008 8.3894 20.4 7.78823 20 7.48823C18.9 6.48823 17.2992 5.6894 16.1992 5.6894Z" fill="#FBE9E7"/>
</svg>
