<svg width="16" height="16" viewBox="0 0 16 16" fill="none" xmlns="http://www.w3.org/2000/svg">
<g clip-path="url(#clip0_1620_10825)">
<path d="M8.23125 0.503753C6.19375 0.439378 4.25625 1.19188 2.79094 2.61469C1.31344 4.04688 0.5 5.975 0.5 8.0375C0.5 11.7438 3.24656 14.9469 6.89062 15.4906C6.92812 15.4969 6.9625 15.5 7 15.5C7.36531 15.5 7.685 15.2329 7.74062 14.8609C7.80166 14.4513 7.51944 14.0694 7.10969 14.0084C4.19687 13.5719 2 11.0063 2 8.0375C2 6.38313 2.65188 4.84063 3.83531 3.69063C5.00813 2.55282 6.53062 1.94594 8.18531 2.00219C11.3906 2.1 14 4.93438 14 8.32188V8.91719C14 9.68125 13.3834 10.3034 12.625 10.3034C11.8666 10.3034 11.25 9.68125 11.25 8.91563V5.27188C11.25 4.85782 10.9141 4.55 10.5 4.55C10.1275 4.55 9.83187 4.82672 9.77375 5.18282C9.2 4.74688 8.50625 4.5 7.75 4.5C5.82031 4.5 4.25 6.07032 4.25 7.97188C4.25 9.87344 5.82031 11.4438 7.75 11.4438C8.71094 11.4438 9.58187 11.0538 10.215 10.4244C10.7278 11.2181 11.6141 11.7469 12.625 11.7469C14.2103 11.7469 15.5 10.4519 15.5 8.86063V8.32188C15.5 4.13125 12.2375 0.596878 8.23125 0.503753ZM7.75 10C6.64687 10 5.75 9.10313 5.75 8.02813C5.75 6.92532 6.64687 6.05625 7.75 6.05625C8.85312 6.05625 9.75 6.95313 9.75 8.02813C9.75 9.10313 8.85312 10 7.75 10Z" fill="#F7F4EF"/>
</g>
<defs>
<clipPath id="clip0_1620_10825">
<rect width="16" height="16" fill="white"/>
</clipPath>
</defs>
</svg>
