<svg width="24" height="24" viewBox="0 0 24 24" fill="none" xmlns="http://www.w3.org/2000/svg">
<path d="M6.18997 21.8539C5.69383 22.2108 5.00195 21.8563 5.00195 21.2451V6.24915C5.00195 4.45422 6.45703 2.99915 8.25195 2.99915H15.7503C17.5453 2.99915 19.0003 4.45422 19.0003 6.24915V21.2451C19.0003 21.8563 18.3085 22.2108 17.8123 21.8539L12.0011 17.6729L6.18997 21.8539ZM17.5003 6.24915C17.5003 5.28265 16.7168 4.49915 15.7503 4.49915H8.25195C7.28545 4.49915 6.50195 5.28265 6.50195 6.24915V19.7815L11.5631 16.1402C11.8248 15.9519 12.1775 15.9519 12.4392 16.1402L17.5003 19.7815V6.24915Z" fill="#45110B"/>
</svg>
