<svg width="26" height="25" viewBox="0 0 26 25" fill="none" xmlns="http://www.w3.org/2000/svg">
<path d="M13 3.00024C13.3797 3.00024 13.6935 3.2824 13.7432 3.64847L13.75 3.75024L13.7491 5.53795C17.2928 5.88782 20.1124 8.70743 20.4632 12.2528L20.5 12.2502H22.25C22.6642 12.2502 23 12.586 23 13.0002C23 13.3799 22.7178 13.6937 22.3518 13.7434L22.25 13.7502L20.4617 13.7493C20.1124 17.2931 17.2928 20.1127 13.7475 20.4635L13.75 20.5002V22.2502C13.75 22.6645 13.4142 23.0002 13 23.0002C12.6203 23.0002 12.3065 22.7181 12.2568 22.352L12.25 22.2502L12.251 20.4619C8.70719 20.1127 5.88757 17.2931 5.53678 13.7477L5.5 13.7502H3.75C3.33579 13.7502 3 13.4145 3 13.0002C3 12.6205 3.28215 12.3068 3.64823 12.2571L3.75 12.2502L5.53771 12.2512C5.88757 8.70743 8.70719 5.88782 12.2525 5.53702L12.25 5.50024V3.75024C12.25 3.33603 12.5858 3.00024 13 3.00024ZM13 7.00024C9.68629 7.00024 7 9.68654 7 13.0002C7 16.314 9.68629 19.0002 13 19.0002C16.3137 19.0002 19 16.314 19 13.0002C19 9.68654 16.3137 7.00024 13 7.00024ZM13 9.00024C15.2091 9.00024 17 10.7911 17 13.0002C17 15.2094 15.2091 17.0002 13 17.0002C10.7909 17.0002 9 15.2094 9 13.0002C9 10.7911 10.7909 9.00024 13 9.00024Z" fill="#CB3E19"/>
</svg>
