<svg width="18" height="18" viewBox="0 0 18 18" fill="none" xmlns="http://www.w3.org/2000/svg">
<path d="M3.25 0C1.45507 0 0 1.45508 0 3.25V14.75C0 16.5449 1.45508 18 3.25 18H14.75C16.5449 18 18 16.5449 18 14.75V3.25C18 1.45507 16.5449 0 14.75 0H3.25ZM5.21967 5.21967C5.51256 4.92678 5.98744 4.92678 6.28033 5.21967L9 7.93934L11.7197 5.21967C12.0126 4.92678 12.4874 4.92678 12.7803 5.21967C13.0732 5.51256 13.0732 5.98744 12.7803 6.28033L10.0607 9L12.7803 11.7197C13.0732 12.0126 13.0732 12.4874 12.7803 12.7803C12.4874 13.0732 12.0126 13.0732 11.7197 12.7803L9 10.0607L6.28033 12.7803C5.98744 13.0732 5.51256 13.0732 5.21967 12.7803C4.92678 12.4874 4.92678 12.0126 5.21967 11.7197L7.93934 9L5.21967 6.28033C4.92678 5.98744 4.92678 5.51256 5.21967 5.21967Z" fill="#F7F4EF"/>
</svg>
