<svg width="25" height="28" viewBox="0 0 25 28" fill="none" xmlns="http://www.w3.org/2000/svg">
<path d="M13 2.25C18.3848 2.25 22.75 6.61522 22.75 12C22.75 16.1196 19.8554 20.6093 14.1402 25.5179C13.4844 26.0811 12.5156 26.0811 11.8572 25.5156L11.4794 25.1881C6.01712 20.4089 3.25 16.0278 3.25 12C3.25 6.61522 7.61522 2.25 13 2.25ZM13 8.25C10.9289 8.25 9.25 9.92893 9.25 12C9.25 14.0711 10.9289 15.75 13 15.75C15.0711 15.75 16.75 14.0711 16.75 12C16.75 9.92893 15.0711 8.25 13 8.25Z" fill="#CB3E19"/>
</svg>
