<svg width="14" height="16" viewBox="0 0 14 16" fill="none" xmlns="http://www.w3.org/2000/svg">
<g clip-path="url(#clip0_1620_10817)">
<path d="M7.00546 4.40625C5.01796 4.40625 3.41484 6.00938 3.41484 7.99688C3.41484 9.98437 5.01796 11.5875 7.00546 11.5875C8.99296 11.5875 10.5961 9.98437 10.5961 7.99688C10.5961 6.00938 8.99296 4.40625 7.00546 4.40625ZM7.00546 10.3312C5.72109 10.3312 4.67109 9.28437 4.67109 7.99688C4.67109 6.70938 5.71796 5.6625 7.00546 5.6625C8.29296 5.6625 9.33983 6.70938 9.33983 7.99688C9.33983 9.28437 8.28983 10.3312 7.00546 10.3312ZM11.5805 4.25938C11.5805 4.725 11.2055 5.09688 10.743 5.09688C10.2773 5.09688 9.90546 4.72188 9.90546 4.25938C9.90546 3.79688 10.2805 3.42188 10.743 3.42188C11.2055 3.42188 11.5805 3.79688 11.5805 4.25938ZM13.9586 5.10938C13.9055 3.9875 13.6492 2.99375 12.8273 2.17501C12.0086 1.35626 11.0148 1.10001 9.89296 1.04376C8.73671 0.978131 5.27109 0.978131 4.11484 1.04376C2.99609 1.09688 2.00234 1.35313 1.18047 2.17188C0.358593 2.99063 0.105469 3.98438 0.0492187 5.10625C-0.0164062 6.2625 -0.0164062 9.72812 0.0492187 10.8844C0.102344 12.0062 0.358593 13 1.18047 13.8187C2.00234 14.6375 2.99296 14.8937 4.11484 14.95C5.27109 15.0156 8.73671 15.0156 9.89296 14.95C11.0148 14.8969 12.0086 14.6406 12.8273 13.8187C13.6461 13 13.9023 12.0062 13.9586 10.8844C14.0242 9.72812 14.0242 6.26563 13.9586 5.10938ZM12.4648 12.125C12.2211 12.7375 11.7492 13.2094 11.1336 13.4562C10.2117 13.8219 8.02421 13.7375 7.00546 13.7375C5.98671 13.7375 3.79609 13.8187 2.87734 13.4562C2.26484 13.2125 1.79297 12.7406 1.54609 12.125C1.18047 11.2031 1.26484 9.01562 1.26484 7.99688C1.26484 6.97813 1.18359 4.7875 1.54609 3.86875C1.78984 3.25625 2.26172 2.78438 2.87734 2.5375C3.79921 2.17188 5.98671 2.25625 7.00546 2.25625C8.02421 2.25625 10.2148 2.175 11.1336 2.5375C11.7461 2.78125 12.218 3.25313 12.4648 3.86875C12.8305 4.79063 12.7461 6.97813 12.7461 7.99688C12.7461 9.01562 12.8305 11.2062 12.4648 12.125Z" fill="#F7F4EF"/>
</g>
<defs>
<clipPath id="clip0_1620_10817">
<rect width="14" height="16" fill="white"/>
</clipPath>
</defs>
</svg>
