<svg width="170" height="41" viewBox="0 0 170 41" fill="none" xmlns="http://www.w3.org/2000/svg">
<path d="M43.3976 28.1552C41.8001 28.1552 40.3643 27.8036 39.0902 27.1003C37.8162 26.397 36.8051 25.4325 36.0569 24.2067C35.3288 22.981 34.9648 21.6045 34.9648 20.0774C34.9648 18.5302 35.3288 17.1537 36.0569 15.9481C36.8051 14.7223 37.8162 13.7578 39.0902 13.0545C40.3643 12.3311 41.8001 11.9694 43.3976 11.9694C44.9952 11.9694 46.4209 12.3311 47.6747 13.0545C48.9487 13.7578 49.9497 14.7223 50.6778 15.9481C51.426 17.1537 51.8001 18.5302 51.8001 20.0774C51.8001 21.6045 51.426 22.981 50.6778 24.2067C49.9497 25.4325 48.9487 26.397 47.6747 27.1003C46.4007 27.8036 44.975 28.1552 43.3976 28.1552ZM43.3976 24.0862C44.1459 24.0862 44.793 23.9053 45.339 23.5436C45.885 23.1819 46.3097 22.6997 46.613 22.0969C46.9164 21.494 47.068 20.8108 47.068 20.0473C47.068 19.3038 46.9164 18.6306 46.613 18.0278C46.3097 17.425 45.885 16.9427 45.339 16.581C44.793 16.2193 44.1459 16.0385 43.3976 16.0385C42.6494 16.0385 41.9922 16.2193 41.4259 16.581C40.8799 16.9427 40.4553 17.425 40.1519 18.0278C39.8486 18.6306 39.6969 19.3038 39.6969 20.0473C39.6969 20.8108 39.8486 21.494 40.1519 22.0969C40.4553 22.6997 40.8799 23.1819 41.4259 23.5436C41.9922 23.9053 42.6494 24.0862 43.3976 24.0862Z" fill="#CB3E19"/>
<path d="M61.751 28.1552C60.1534 28.1552 58.7682 27.8538 57.5953 27.251C56.4426 26.6281 55.5528 25.7942 54.9259 24.7493C54.299 23.6843 53.9856 22.5088 53.9856 21.2228V12.3311H58.6873V21.1022C58.6873 21.6447 58.8187 22.1471 59.0816 22.6092C59.3445 23.0513 59.6984 23.413 60.1433 23.6943C60.6084 23.9556 61.1342 24.0862 61.7207 24.0862C62.2869 24.0862 62.7925 23.9556 63.2374 23.6943C63.7025 23.413 64.0665 23.0513 64.3294 22.6092C64.5923 22.1471 64.7237 21.6447 64.7237 21.1022V12.3311H69.4255V21.2228C69.4255 22.5088 69.1221 23.6843 68.5155 24.7493C67.9088 25.7942 67.0291 26.6281 65.8764 27.251C64.744 27.8538 63.3688 28.1552 61.751 28.1552Z" fill="#CB3E19"/>
<path d="M80.285 27.7935C78.6874 27.7935 77.2617 27.4519 76.0079 26.7687C74.7541 26.0855 73.7632 25.1712 73.0352 24.0259C72.3072 22.8604 71.9432 21.5543 71.9432 20.1075C71.9432 18.6608 72.3072 17.3647 73.0352 16.2193C73.7632 15.0539 74.7541 14.1296 76.0079 13.4464C77.2617 12.7632 78.6874 12.4216 80.285 12.4216H82.105V14.8027H80.194C79.1626 14.8027 78.2324 15.0438 77.4033 15.5261C76.5944 15.9883 75.9472 16.6212 75.4619 17.425C74.9968 18.2287 74.7642 19.1229 74.7642 20.1075C74.7642 21.0921 74.9968 21.9863 75.4619 22.7901C75.9472 23.5939 76.5944 24.2369 77.4033 24.7191C78.2324 25.1813 79.1626 25.4124 80.194 25.4124H82.105V27.7935H80.285Z" fill="#45110B"/>
<path d="M84.6867 27.7935V5.79053H87.4774V14.4109C88.1043 13.6071 88.8626 13.0143 89.7524 12.6326C90.6625 12.2508 91.6028 12.0599 92.5735 12.0599C93.9486 12.0599 95.1418 12.3512 96.1529 12.934C97.164 13.4966 97.9527 14.2903 98.5189 15.3151C99.0851 16.3399 99.3683 17.5355 99.3683 18.9019V27.7935H96.5775V18.932C96.5775 18.0077 96.3652 17.214 95.9405 16.5509C95.5159 15.8677 94.9496 15.3453 94.2418 14.9836C93.5543 14.6219 92.8162 14.441 92.0275 14.441C91.2388 14.441 90.5007 14.6219 89.8131 14.9836C89.1255 15.3252 88.5593 15.8275 88.1144 16.4906C87.6897 17.1537 87.4774 17.9474 87.4774 18.8718V27.7935H84.6867Z" fill="#45110B"/>
<path d="M110.467 28.1552C108.89 28.1552 107.494 27.8036 106.281 27.1003C105.067 26.3769 104.107 25.4124 103.399 24.2067C102.691 22.981 102.337 21.6146 102.337 20.1075C102.337 18.6005 102.691 17.2441 103.399 16.0385C104.107 14.8128 105.067 13.8482 106.281 13.1449C107.494 12.4216 108.89 12.0599 110.467 12.0599C112.044 12.0599 113.44 12.4216 114.653 13.1449C115.887 13.8482 116.847 14.8027 117.535 16.0084C118.242 17.214 118.596 18.5804 118.596 20.1075C118.596 21.6146 118.242 22.981 117.535 24.2067C116.847 25.4124 115.887 26.3769 114.653 27.1003C113.44 27.8036 112.044 28.1552 110.467 28.1552ZM110.467 25.7741C111.539 25.7741 112.469 25.5229 113.258 25.0205C114.046 24.5182 114.663 23.845 115.108 23.0011C115.553 22.137 115.775 21.1725 115.775 20.1075C115.775 19.0426 115.553 18.0881 115.108 17.2441C114.663 16.3801 114.046 15.6969 113.258 15.1945C112.469 14.6922 111.539 14.441 110.467 14.441C109.415 14.441 108.485 14.6922 107.676 15.1945C106.887 15.6969 106.271 16.3801 105.826 17.2441C105.381 18.0881 105.158 19.0426 105.158 20.1075C105.158 21.1725 105.381 22.137 105.826 23.0011C106.271 23.845 106.887 24.5182 107.676 25.0205C108.485 25.5229 109.415 25.7741 110.467 25.7741Z" fill="#45110B"/>
<path d="M128.848 28.1552C127.271 28.1552 125.876 27.8036 124.662 27.1003C123.449 26.3769 122.488 25.4124 121.781 24.2067C121.073 22.981 120.719 21.6146 120.719 20.1075C120.719 18.6005 121.073 17.2441 121.781 16.0385C122.488 14.8128 123.449 13.8482 124.662 13.1449C125.876 12.4216 127.271 12.0599 128.848 12.0599C130.426 12.0599 131.821 12.4216 133.035 13.1449C134.268 13.8482 135.229 14.8027 135.916 16.0084C136.624 17.214 136.978 18.5804 136.978 20.1075C136.978 21.6146 136.624 22.981 135.916 24.2067C135.229 25.4124 134.268 26.3769 133.035 27.1003C131.821 27.8036 130.426 28.1552 128.848 28.1552ZM128.848 25.7741C129.92 25.7741 130.85 25.5229 131.639 25.0205C132.428 24.5182 133.045 23.845 133.49 23.0011C133.934 22.137 134.157 21.1725 134.157 20.1075C134.157 19.0426 133.934 18.0881 133.49 17.2441C133.045 16.3801 132.428 15.6969 131.639 15.1945C130.85 14.6922 129.92 14.441 128.848 14.441C127.797 14.441 126.867 14.6922 126.058 15.1945C125.269 15.6969 124.652 16.3801 124.207 17.2441C123.762 18.0881 123.54 19.0426 123.54 20.1075C123.54 21.1725 123.762 22.137 124.207 23.0011C124.652 23.845 125.269 24.5182 126.058 25.0205C126.867 25.5229 127.797 25.7741 128.848 25.7741Z" fill="#45110B"/>
<path d="M139.738 27.7935V25.4124H147.139C147.624 25.4124 148.039 25.3119 148.383 25.111C148.747 24.8899 149.02 24.6086 149.202 24.267C149.384 23.9254 149.475 23.5637 149.475 23.1819C149.475 22.8202 149.394 22.4887 149.232 22.1873C149.07 21.8658 148.818 21.6146 148.474 21.4337C148.15 21.2328 147.756 21.1323 147.291 21.1323H144.166C143.175 21.1323 142.306 20.9716 141.558 20.6501C140.83 20.3085 140.253 19.8162 139.829 19.1732C139.424 18.5302 139.222 17.7465 139.222 16.8222C139.222 16.0385 139.414 15.3151 139.798 14.652C140.182 13.9889 140.718 13.4564 141.406 13.0545C142.094 12.6326 142.882 12.4216 143.772 12.4216H150.9V14.8027H144.045C143.418 14.8027 142.923 14.9936 142.559 15.3754C142.195 15.7572 142.013 16.2093 142.013 16.7317C142.013 17.2341 142.195 17.6762 142.559 18.0579C142.943 18.4196 143.479 18.6005 144.166 18.6005H147.139C148.251 18.6005 149.182 18.7813 149.93 19.143C150.698 19.4846 151.275 19.987 151.659 20.6501C152.063 21.3132 152.265 22.127 152.265 23.0915C152.265 23.9154 152.063 24.689 151.659 25.4124C151.254 26.1157 150.688 26.6883 149.96 27.1304C149.252 27.5725 148.423 27.7935 147.473 27.7935H139.738Z" fill="#45110B"/>
<path d="M163.196 27.7935C161.497 27.7935 159.991 27.4821 158.676 26.8591C157.362 26.2161 156.33 25.3219 155.582 24.1766C154.854 23.0111 154.49 21.6548 154.49 20.1075C154.49 18.5804 154.804 17.214 155.431 16.0084C156.057 14.7826 156.927 13.8181 158.039 13.1148C159.152 12.4115 160.446 12.0599 161.922 12.0599C163.52 12.0599 164.844 12.4015 165.896 13.0847C166.968 13.7679 167.766 14.6922 168.292 15.8576C168.818 17.003 169.081 18.289 169.081 19.7157C169.081 19.9367 169.071 20.1678 169.05 20.409C169.05 20.6501 169.03 20.8611 168.99 21.0419H157.463C157.564 21.9863 157.878 22.7901 158.403 23.4532C158.929 24.0962 159.596 24.5885 160.405 24.9301C161.234 25.2516 162.144 25.4124 163.135 25.4124H167.17V27.7935H163.196ZM157.433 19.0827H166.26C166.26 18.701 166.219 18.2991 166.138 17.8771C166.058 17.435 165.916 17.0131 165.714 16.6112C165.512 16.1892 165.239 15.8175 164.895 15.496C164.571 15.1544 164.157 14.8831 163.651 14.6821C163.166 14.4812 162.589 14.3807 161.922 14.3807C161.214 14.3807 160.587 14.5214 160.041 14.8027C159.516 15.0639 159.061 15.4256 158.676 15.8878C158.292 16.3299 157.999 16.8322 157.797 17.3948C157.594 17.9575 157.473 18.5201 157.433 19.0827Z" fill="#45110B"/>
<path d="M22.3252 41C18.0496 41 14.234 40.0889 10.8785 38.2667C7.52293 36.4444 4.87096 34.0059 2.92258 30.951C0.974193 27.8425 0 24.3588 0 20.5C0 16.6412 0.974193 13.1843 2.92258 10.1294C4.87096 7.02092 7.52293 4.55555 10.8785 2.73333C14.234 0.911109 18.0496 0 22.3252 0H32.0138V4.90392H21.9193C18.9426 4.90392 16.2365 5.60065 13.8011 6.99412C11.3656 8.33399 9.41719 10.183 7.9559 12.5412C6.49462 14.8993 5.76397 17.5523 5.76397 20.5C5.76397 23.4477 6.49462 26.1007 7.9559 28.4588C9.41719 30.817 11.3656 32.6928 13.8011 34.0863C16.2365 35.4261 18.9426 36.0961 21.9193 36.0961H27.0338V41H22.3252Z" fill="#CB3E19"/>
<path d="M21.799 40.9992V29.6915C20.5467 29.3782 19.4733 28.8747 18.5788 28.181C17.6842 27.4649 17.0022 26.6033 16.5326 25.5963C16.0629 24.5669 15.8281 23.4591 15.8281 22.2731V12.3706H21.0275V22.1052C21.0275 22.7095 21.1728 23.2689 21.4636 23.7836C21.7543 24.2983 22.1456 24.7123 22.6376 25.0256C23.1519 25.3166 23.7222 25.462 24.3484 25.462C24.9969 25.462 25.5671 25.3166 26.0591 25.0256C26.5735 24.7123 26.976 24.2983 27.2667 23.7836C27.5574 23.2689 27.7028 22.7095 27.7028 22.1052V12.3706H32.9021V22.2731C32.9021 23.4591 32.6673 24.5557 32.1977 25.5627C31.7504 26.5697 31.0796 27.4313 30.185 28.1474C29.3129 28.8635 28.2507 29.3671 26.9983 29.658V40.9992H21.799Z" fill="#CB3E19"/>
</svg>
