<svg width="25" height="24" viewBox="0 0 25 24" fill="none" xmlns="http://www.w3.org/2000/svg">
<path d="M12.2496 3C12.6293 3 12.9431 3.28201 12.9929 3.64808L12.9997 3.74985L13.001 11H20.254C20.6683 11 21.004 11.3358 21.004 11.75C21.004 12.1297 20.7219 12.4435 20.3558 12.4932L20.254 12.5H13.001L13.003 19.7491C13.0031 20.1633 12.6674 20.4993 12.2532 20.4993C11.8735 20.4993 11.5596 20.2173 11.5099 19.8512L11.503 19.7494L11.501 12.5H4.25195C3.83774 12.5 3.50195 12.1642 3.50195 11.75C3.50195 11.3703 3.78411 11.0565 4.15018 11.0068L4.25195 11H11.501L11.4997 3.75015C11.4997 3.33594 11.8354 3 12.2496 3Z" fill="#212121"/>
</svg>
