<svg width="22" height="26" viewBox="0 0 22 26" fill="none" xmlns="http://www.w3.org/2000/svg">
<path d="M8.97461 3.89282C12.9787 3.89282 16.2246 7.13876 16.2246 11.1428C16.2246 12.8747 15.6174 14.4647 14.6042 15.7116L19.5049 20.6125C19.7978 20.9054 19.7978 21.3803 19.5049 21.6732C19.2387 21.9394 18.822 21.9636 18.5284 21.7458L18.4443 21.6732L13.5434 16.7724C12.2965 17.7856 10.7065 18.3928 8.97461 18.3928C4.97054 18.3928 1.72461 15.1469 1.72461 11.1428C1.72461 7.13876 4.97054 3.89282 8.97461 3.89282ZM8.97461 5.39282C5.79897 5.39282 3.22461 7.96719 3.22461 11.1428C3.22461 14.3185 5.79897 16.8928 8.97461 16.8928C12.1502 16.8928 14.7246 14.3185 14.7246 11.1428C14.7246 7.96719 12.1502 5.39282 8.97461 5.39282Z" fill="#CB3E19"/>
</svg>
