<svg width="24" height="24" viewBox="0 0 24 24" fill="none" xmlns="http://www.w3.org/2000/svg">
<path d="M10.7878 3.10251C11.283 2.09913 12.7138 2.09913 13.209 3.10251L15.567 7.88023L20.8395 8.64638C21.9468 8.80728 22.3889 10.168 21.5877 10.9491L17.7724 14.668L18.6731 19.9192C18.8622 21.022 17.7047 21.863 16.7143 21.3424L11.9984 18.8631L7.28252 21.3424C6.29213 21.863 5.13459 21.0221 5.32374 19.9192L6.2244 14.668L2.40916 10.9491C1.60791 10.168 2.05005 8.80728 3.15735 8.64638L8.42988 7.88023L10.7878 3.10251ZM11.9984 4.03891L9.74008 8.6148C9.54344 9.01324 9.16332 9.28941 8.72361 9.3533L3.67382 10.0871L7.32788 13.6489C7.64606 13.9591 7.79125 14.4059 7.71614 14.8438L6.85353 19.8732L11.3702 17.4987C11.7635 17.2919 12.2333 17.2919 12.6266 17.4987L17.1433 19.8732L16.2807 14.8438C16.2056 14.4059 16.3508 13.9591 16.6689 13.6489L20.323 10.0871L15.2732 9.3533C14.8335 9.28941 14.4534 9.01324 14.2568 8.6148L11.9984 4.03891Z" fill="#FE8D0E"/>
</svg>
